<svg xmlns="http://www.w3.org/2000/svg" viewBox="0 0 853.4 768.4"><defs><style>.a{fill:#ff5c35;}</style></defs><path class="a" d="M385.9,334.7,281.2,439.5c-34.4,34.4-71.5,27.4-86.9,11.9s-22.4-52.6,12-86.9L311,259.8c34.4-34.4,71.5-27.4,86.9-11.9S420.3,300.4,385.9,334.7Z"/><path class="a" d="M629.7,400.3,492.9,457c-44.9,18.6-76.5-2-84.9-22.2s-.6-57.1,44.3-75.7l136.8-56.7c44.9-18.6,76.5,2,84.9,22.2S674.6,381.7,629.7,400.3Z"/><path class="a" d="M101.1,603.2a31.8,31.8,0,0,1,10-23.8,33.8,33.8,0,0,1,24.5-9.8c12.7,0,22,5.3,28,15.9L151.4,595c-4.3-6.3-9.5-9.4-15.5-9.4a16.2,16.2,0,0,0-12.2,5,17.4,17.4,0,0,0-4.8,12.6,17.6,17.6,0,0,0,4.8,12.7,16.2,16.2,0,0,0,12.2,5c6,0,11.2-3.1,15.5-9.2l12.2,9.4a31.8,31.8,0,0,1-11.5,11.8,32.1,32.1,0,0,1-16.5,4.2,32.9,32.9,0,0,1-24.5-9.8A32.3,32.3,0,0,1,101.1,603.2Z"/><path class="a" d="M218.1,571v15.5h-4.7c-5.4,0-9.6,1.4-12.7,4.3s-4.6,7-4.6,12.5v32.2H178.5V571h16.2v7.7a21.7,21.7,0,0,1,17.7-8.5A19.1,19.1,0,0,1,218.1,571Z"/><path class="a" d="M288.8,609.2H243.6a15.3,15.3,0,0,0,6.3,9.4,20.3,20.3,0,0,0,11.8,3.3c6.3,0,12.3-2.2,18-6.5l7.3,12a39.4,39.4,0,0,1-25.8,9.6,34.1,34.1,0,0,1-25.2-9.7,31.2,31.2,0,0,1-10.1-24,31.8,31.8,0,0,1,9.8-24,32.1,32.1,0,0,1,24-9.8c8.9,0,16.1,2.9,21.8,8.6S290,591,290,599.5A41.5,41.5,0,0,1,288.8,609.2Zm-45.2-12.4h29.3a12.5,12.5,0,0,0-4.1-9.4,14.1,14.1,0,0,0-9.8-3.6,15.1,15.1,0,0,0-9.8,3.5A17.8,17.8,0,0,0,243.6,596.8Z"/><path class="a" d="M365.4,609.2H320.2a15.3,15.3,0,0,0,6.3,9.4,20.3,20.3,0,0,0,11.8,3.3c6.3,0,12.3-2.2,18-6.5l7.3,12a39.4,39.4,0,0,1-25.8,9.6,34.1,34.1,0,0,1-25.2-9.7,31.2,31.2,0,0,1-10.1-24,31.8,31.8,0,0,1,9.8-24,32.1,32.1,0,0,1,24-9.8c8.9,0,16.1,2.9,21.8,8.6s8.5,12.9,8.5,21.4A41.5,41.5,0,0,1,365.4,609.2Zm-45.2-12.4h29.3a12.5,12.5,0,0,0-4.1-9.4,14.1,14.1,0,0,0-9.8-3.6,15.1,15.1,0,0,0-9.8,3.5A17.8,17.8,0,0,0,320.2,596.8Z"/><path class="a" d="M481.5,595.5v40H463.9V598c0-3.8-1-6.9-3.1-9.1a10.7,10.7,0,0,0-8.3-3.4,11.3,11.3,0,0,0-8.5,3.4,12.1,12.1,0,0,0-3.3,8.7v37.9H423.1V598c0-3.8-1-6.9-3.1-9.1a10.7,10.7,0,0,0-8.3-3.4,11.2,11.2,0,0,0-8.6,3.4,12.6,12.6,0,0,0-3.3,9.1v37.5H382.2V571h16.2v5.7c4.5-4.8,10.6-7.2,18.2-7.2s14.8,3.1,19.1,9.2c5.5-6.2,12.6-9.2,21.5-9.2s13.4,2.3,17.8,7S481.5,587.6,481.5,595.5Z"/><path class="a" d="M559.4,609.2H514.2a15.3,15.3,0,0,0,6.3,9.4,20.3,20.3,0,0,0,11.8,3.3c6.3,0,12.3-2.2,18-6.5l7.3,12a39.4,39.4,0,0,1-25.8,9.6,34.1,34.1,0,0,1-25.2-9.7,31.2,31.2,0,0,1-10.1-24,31.8,31.8,0,0,1,9.8-24,32.1,32.1,0,0,1,24-9.8c8.9,0,16.1,2.9,21.8,8.6s8.5,12.9,8.5,21.4A41.5,41.5,0,0,1,559.4,609.2Zm-45.2-12.4h29.3a12.5,12.5,0,0,0-4.1-9.4,14.1,14.1,0,0,0-9.8-3.6,15.1,15.1,0,0,0-9.8,3.5A16.7,16.7,0,0,0,514.2,596.8Z"/><path class="a" d="M623,537.8h17.6v97.7H624.4v-7.9c-4.4,6.3-11.3,9.5-20.7,9.5a29.2,29.2,0,0,1-22.4-9.6c-5.9-6.4-8.9-14.4-8.9-24.2s3-17.8,8.9-24.2a29.2,29.2,0,0,1,22.4-9.6c8.2,0,14.6,2.6,19.3,7.7V537.8Zm-4.4,78.5c3.1-3.1,4.6-7.5,4.6-13s-1.6-9.9-4.7-13.1a15.5,15.5,0,0,0-11.6-4.8,16.1,16.1,0,0,0-11.9,4.9,17.7,17.7,0,0,0-4.8,12.8c0,5.3,1.6,9.6,4.7,12.9a15.8,15.8,0,0,0,12,5A15.5,15.5,0,0,0,618.6,616.3Z"/><path class="a" d="M657.3,547.5a10.4,10.4,0,0,1,3.3-7.8,10.9,10.9,0,0,1,7.9-3.1,11.2,11.2,0,0,1,8,3.1,10.8,10.8,0,0,1,0,15.5,11.2,11.2,0,0,1-8,3.1,10.8,10.8,0,0,1-7.9-3.1A10.1,10.1,0,0,1,657.3,547.5Zm2.5,88V571h17.6v64.5Z"/><path class="a" d="M750.7,597.2v38.3H734.5v-6.3c-5,5.2-11.6,7.8-19.7,7.8s-12.2-1.8-16.2-5.3a17.9,17.9,0,0,1-6.1-13.9,16.2,16.2,0,0,1,6.6-13.7c4.4-3.3,10.3-5,17.8-5h16.3v-2.9c0-3.6-1-6.4-3.1-8.4s-5-2.9-8.9-2.9a18.1,18.1,0,0,0-8.7,2.1,31.9,31.9,0,0,0-8.3,6.8L695.1,583c7.5-8.9,16.8-13.3,28.1-13.3,8.5,0,15.2,2.4,20.2,7.2S750.7,588.4,750.7,597.2Zm-17.5,14.2v-.8H719.4c-6,0-9,2.2-9,6.5a5.8,5.8,0,0,0,2.5,5.1,10.7,10.7,0,0,0,6.7,1.9,13.7,13.7,0,0,0,9.7-3.6A11.7,11.7,0,0,0,733.2,611.4Z"/></svg>