<svg xmlns="http://www.w3.org/2000/svg" viewBox="0 0 775.12 92.08"><defs><style>.cls-1{fill:#f51;}.cls-2{fill:#fff;}.cls-3{fill:#222;}</style></defs><title>Element 1</title><g id="Ebene_2" data-name="Ebene 2"><g id="Ebene_2-2" data-name="Ebene 2"><g id="Ebene_1-2" data-name="Ebene 1"><g id="Ebene_1-3" data-name="Ebene 1"><path class="cls-1" d="M285.43,91.47V31.41c0-2.2,2.76-6.06,8.82-6.06,4.41,0,7.16,2.2,7.71,6.06,0-.55,1.11-1.65,1.66-2.2a7.42,7.42,0,0,1,2.2-1.66,16.53,16.53,0,0,1,5.51-2.2c9.37-1.66,19.84,0,25.35,8.26A26.48,26.48,0,0,1,345.5,27a24.68,24.68,0,0,1,11-2.2,25.75,25.75,0,0,1,9.36,1.65,35.24,35.24,0,0,1,7.72,4.41,21,21,0,0,1,5,7.16,25.8,25.8,0,0,1,1.65,9.37V82.65a9.16,9.16,0,0,1-2.75,6.62A8.88,8.88,0,0,1,371.39,92,9.39,9.39,0,0,1,362,82.65V51.25c0-2.21-.55-5-2.21-6.62a10,10,0,0,0-7.71-3.3,11.64,11.64,0,0,0-7.17,2.75,11,11,0,0,0-2.75,7.17V92H324V51.25c0-2.21-.56-5-2.21-6.62a10,10,0,0,0-7.71-3.3,11.64,11.64,0,0,0-7.17,2.75,11,11,0,0,0-2.75,7.17V92H285.43v-.55Z"/><path class="cls-1" d="M456.8,62.27a11.74,11.74,0,0,1-6.61,1.65H415.48c2.75,11,12.12,12.67,16.53,12.67s11-1.65,13.22-2.2L448,88.72A45.57,45.57,0,0,1,430.91,92a38.14,38.14,0,0,1-13.78-2.2,36.74,36.74,0,0,1-11-6.61c-3.31-2.76-5.51-6.62-7.16-10.47A36,36,0,0,1,396.19,59a32.34,32.34,0,0,1,2.2-12.67A33.86,33.86,0,0,1,405,35.82a35.25,35.25,0,0,1,10.47-7.17,32.68,32.68,0,0,1,12.67-2.75,28.82,28.82,0,0,1,11.57,2.2,30.44,30.44,0,0,1,16.53,16.53A29.54,29.54,0,0,1,459,56.21C459,59.51,458.46,61.16,456.8,62.27Zm-17.08-8.82c-1.1-11.57-8.81-13.78-12.12-13.78s-11,1.66-12.67,13.78Z"/><path class="cls-2" d="M263.94,62.27a11.74,11.74,0,0,1-6.61,1.65H222.62c2.75,11,12.12,12.67,16.53,12.67s11-1.65,13.22-2.2l2.76,14.33A45.57,45.57,0,0,1,238.05,92a38.14,38.14,0,0,1-13.78-2.2,36.62,36.62,0,0,1-11-6.61c-3.31-2.76-5.51-6.62-7.16-10.47A36,36,0,0,1,203.33,59a32.34,32.34,0,0,1,2.2-12.67,33.86,33.86,0,0,1,6.62-10.47,35.25,35.25,0,0,1,10.47-7.17,32.68,32.68,0,0,1,12.67-2.75,28.82,28.82,0,0,1,11.57,2.2,30.44,30.44,0,0,1,16.53,16.53,29.54,29.54,0,0,1,2.76,11.58C266.15,59.51,265.6,61.16,263.94,62.27Zm-17.08-8.82c-1.1-11.57-8.81-13.78-12.12-13.78s-11,1.66-12.67,13.78Z"/><path class="cls-3" d="M181.29,62.27a11.76,11.76,0,0,1-6.61,1.65H140c2.76,11,12.12,12.67,16.53,12.67s11-1.65,13.23-2.2l2.75,14.33A45.47,45.47,0,0,1,155.39,92a38.14,38.14,0,0,1-13.78-2.2,36.86,36.86,0,0,1-11-6.61c-3.3-2.76-5.51-6.62-7.16-10.47A36.19,36.19,0,0,1,120.68,59a32.34,32.34,0,0,1,2.2-12.67,33.83,33.83,0,0,1,6.61-10.47A35.38,35.38,0,0,1,140,28.65a32.77,32.77,0,0,1,12.68-2.75,28.85,28.85,0,0,1,11.57,2.2,30.44,30.44,0,0,1,16.53,16.53,29.7,29.7,0,0,1,2.75,11.58C183.49,59.51,182.94,61.16,181.29,62.27Zm-17.08-8.82c-1.11-11.57-8.82-13.78-12.13-13.78s-11,1.66-12.67,13.78Z"/><path class="cls-1" d="M555.44,34.72c0-6.07,5.51-9.37,9.37-9.37,5,0,8.81,4.41,8.81,9.37V92H555.44Z"/><path class="cls-1" d="M638.64,83.21a13.77,13.77,0,0,1-7.16,6.61,18.13,18.13,0,0,1-9.37,2.2A28.12,28.12,0,0,1,610,89.27c-3.86-1.66-6.61-4.41-9.37-7.17s-4.4-6.61-6.06-10.47A32.34,32.34,0,0,1,592.36,59c0-3.31,0-6.61,1.1-9.92a47.43,47.43,0,0,1,3.86-9.37,26,26,0,0,1,6.06-7.16,23.14,23.14,0,0,1,7.71-5c3.31-1.1,7.17-2.2,9.92-2.2A21,21,0,0,1,629.83,27,35.7,35.7,0,0,1,637,31.41c0-6.61,18.19-9.92,18.19,2.75l0,57.86H638.64ZM623.77,41.33c-5.51,0-13.78,3.85-13.78,17.08,0,2.75,0,17.08,13.23,17.08,3.3,0,13.77-1.65,13.77-17.08S628.73,41.33,623.77,41.33Z"/><path class="cls-3" d="M43.53,46.33c-3.3-2.21-7.71-4.41-11.57-3.86C25.9,43,20.39,46.88,18.74,52.94A23.07,23.07,0,0,0,17.63,59c0,7.67,2.76,9.92,3.86,11.57a14.76,14.76,0,0,0,4.41,3.86A11.12,11.12,0,0,0,32,76.08a20.23,20.23,0,0,0,7.71-1.65,17,17,0,0,1,6.07-1.65,7.52,7.52,0,0,1,7.71,7.71,8.34,8.34,0,0,1-2.2,6.06c-6,6.07-19.84,5.51-19.84,5.51a30.61,30.61,0,0,1-12.67-2.75,25.5,25.5,0,0,1-9.92-7.17A41.85,41.85,0,0,1,2.2,71.67C.55,67.82,0,63.41,0,58.45A32.14,32.14,0,0,1,1.65,48c.37-1.1.8-2.19,1.26-3.27a31.88,31.88,0,0,1,7.42-10.86,29,29,0,0,1,7.85-5.16,32.14,32.14,0,0,1,31.41,2.76,23.14,23.14,0,0,1,3.86,3.31Z"/><path class="cls-3" d="M108.55,36.37c-1.65,3.3-5,5-7.71,6.61-5.51,3.31-11.57,8.27-11.57,17.63V92H71.08v-59c0-3.3,1.66-6.61,7.17-6.61,4.4,0,5,4.41,6.06,11a12,12,0,0,1,2.2-2.75c2.76-3.31,6.61-5.52,10.47-7.17,3.31-1.1,7.16-1.1,9.92.55C109.66,29.2,110.21,33.61,108.55,36.37Z"/><path class="cls-3" d="M263.94,62.27a11.74,11.74,0,0,1-6.61,1.65H222.62c2.75,11,12.12,12.67,16.53,12.67s11-1.65,13.22-2.2l2.76,14.33A45.57,45.57,0,0,1,238.05,92a38.14,38.14,0,0,1-13.78-2.2,36.62,36.62,0,0,1-11-6.61c-3.31-2.76-5.51-6.62-7.16-10.47A36,36,0,0,1,203.33,59a32.34,32.34,0,0,1,2.2-12.67,33.86,33.86,0,0,1,6.62-10.47,35.25,35.25,0,0,1,10.47-7.17,32.68,32.68,0,0,1,12.67-2.75,28.82,28.82,0,0,1,11.57,2.2,30.44,30.44,0,0,1,16.53,16.53,29.54,29.54,0,0,1,2.76,11.58C266.15,59.51,265.6,61.16,263.94,62.27Zm-17.08-8.82c-1.1-11.57-8.81-13.78-12.12-13.78s-11,1.66-12.67,13.78Z"/><circle class="cls-1" cx="564.53" cy="9.09" r="9.09"/></g><path class="cls-1" d="M517.42,0V32.51a20.35,20.35,0,0,0-14.88-6.06,28.06,28.06,0,0,0-12.12,2.75c-3.86,1.66-6.62,4.41-9.37,7.17A39.53,39.53,0,0,0,475,46.84,31.24,31.24,0,0,0,472.78,59,29.67,29.67,0,0,0,475,71.08a24.85,24.85,0,0,0,6.06,10.47,31.89,31.89,0,0,0,9.37,7.72A30,30,0,0,0,502.54,92a21.65,21.65,0,0,0,9.92-2.2c1.65-.55,2.75-1.66,4.41-2.76l1.65-1.65,1.65-1.65c0,3.85,3.31,8.26,7.72,8.26,3.85,0,8.81-1.1,8.81-9.37V0ZM503.64,77.14c-13.22,0-13.22-14.87-13.22-17.63,0-13.77,8.26-17.08,13.77-17.08,5,0,13.23,1.65,13.23,17.08C516.87,75.49,507,77.14,503.64,77.14Z"/></g><path class="cls-1" d="M769.34,0H688.87a5.78,5.78,0,0,0-5.78,5.77V92h86.25a5.77,5.77,0,0,0,5.78-5.77V5.77A5.78,5.78,0,0,0,769.34,0ZM709.8,72.19c-4.47,4.48-9.3,3.57-11.31,1.56s-2.92-6.84,1.55-11.32L713.67,48.8c4.48-4.47,9.31-3.57,11.32-1.55s2.92,6.84-1.56,11.31Zm45.36-5.09-17.81,7.38c-5.85,2.42-10-.27-11.05-2.9s-.08-7.44,5.77-9.86l17.81-7.37c5.84-2.43,10,.26,11,2.89S761,64.68,755.16,67.1Z"/><path class="cls-3" d="M246.28,13.7l-17.8,7.38c-5.85,2.42-10-.26-11-2.9s-.08-7.43,5.76-9.86L241,1c5.85-2.42,10,.26,11.05,2.89S252.13,11.28,246.28,13.7Z"/><path class="cls-3" d="M163.63,13.7l-17.81,7.38c-5.84,2.42-10-.26-11-2.9s-.08-7.43,5.77-9.86L158.35,1c5.84-2.42,10,.26,11.05,2.89S169.48,11.28,163.63,13.7Z"/></g></g></svg>